<svg xmlns="http://www.w3.org/2000/svg" viewBox="0 0 900 900"><rect width="900" height="900" fill="#d9d8b9"/><circle cx="690" cy="225" r="135" fill="#ebae75"/><path d="M0 360c245-52 482-35 900 8v310H0z" fill="#8aaba7"/><path d="M0 475c202-60 406-37 630-22 121 9 211-8 270-36v279H0z" fill="#558a8c"/><path d="M0 580c300-56 599-42 900 3v180H0z" fill="#36767b"/><path d="M0 681c240 3 426-52 588-45 121 5 216 53 312 58v206H0z" fill="#dbbb8c"/><path d="M0 754c182-26 323-14 472 41 128 47 283 53 428 20v85H0z" fill="#687b5a"/><path d="M0 819c157-53 284-54 422-10 154 49 311 63 478 29v62H0z" fill="#3f6253"/><path d="M100 766c33-61 42-132 25-215M130 735c-12-30-33-52-61-65m65 36c22-38 47-63 80-71" stroke="#3f6253" stroke-width="10" fill="none"/></svg>
