<svg xmlns="http://www.w3.org/2000/svg" viewBox="0 0 900 900"><rect width="900" height="900" fill="#e9d9ba"/><circle cx="667" cy="259" r="165" fill="#eaa662"/><path d="M0 688c205-47 347-110 550-76 146 24 247 3 350-43v331H0z" fill="#c67852"/><path d="M0 775c246-13 420-42 589-18 146 22 234 19 311-3v146H0z" fill="#6d453a"/><ellipse cx="435" cy="700" rx="248" ry="57" fill="#4f352c" opacity=".28"/><path d="M245 373h335l-32 290c-7 62-51 88-135 88-83 0-127-26-135-88z" fill="#fbf0d6"/><path d="M579 431c105-10 132 23 126 88-5 74-62 105-145 88" fill="none" stroke="#fbf0d6" stroke-width="41"/><ellipse cx="412" cy="372" rx="168" ry="29" fill="#9a593f"/><ellipse cx="412" cy="372" rx="148" ry="17" fill="#593428"/><path d="M348 295c-29-54 9-82 0-126M426 295c-30-54 9-82 0-126M506 295c-30-54 9-82 0-126" fill="none" stroke="#fff2d7" stroke-width="10" stroke-linecap="round" opacity=".65"/><text x="73" y="98" fill="#53372c" font-family="Georgia" font-size="48" font-style="italic">good mornings</text><text x="76" y="136" fill="#8c5d42" font-family="Arial" font-size="14" letter-spacing="5">A SLOWER START</text></svg>
